Australia *2008* [BluRay][1080p][ENG, POL]

General information:
Country: Australia, USA, UK 
Release: 18 November 2008
Genre: Adventure, Drama, History, Romance, War 
Director: Baz Luhrmann
Screenplay: Baz Luhrmann, Ronald Harwood, Stuart Beattie, Richard Flanagan
Original Music: Davig Hirschfelder 
Cinematography by: Mandy Walker 
Duration: 2h 38mn
Language: English, Polish
Subtitles: English, Polish
Rating: 7.1/10 - 11011 votes 

Cast:
Nicole Kidman ...  Lady Sarah Ashley
Shea Adams  ...  Carney Boy 3  
Eddie Baroo  ...  Bull  
Ray Barrett  ...  Ramsden  
Tony Barry  ...  Sergeant Callahan  
Jamal Bednarz-Metallah  ...  Mission Boy  
Damian Bradford  ...  Constable 1  
Bryan Brown  ...  King Carney  
Nathin Butler  ...  Carney Boy 1  
Tara Carpenter  ...  Essential Services Woman  
Rebecca Chatfield  ...  Magarri's Niece  
Lillian Crombie  ...  Bandy Legs  
Max Cullen  ...  Old Drunk  
Essie Davis  ...  Cath Carney  
Arthur Dignam  ...  Father Benedict  
Michelle Dyzla  ...  Hairdresser  

Plot:
Set in northern Australia before World War II, an English aristocrat who inherits a sprawling ranch reluctantly pacts with a stock-man in order to protect her new property from a takeover plot. As the pair drive 2,000 head of cattle over unforgiving landscape, they experience the bombing of Darwin, Australia, by Japanese forces firsthand. 

Specifications:
General
Format                           : Matroska
File size                        : 12.1 GiB
Writing library                  : libebml v1.0.0 + libmatroska v1.0.0

Video
Format                           : AVC
Format/Info                      : Advanced Video Codec
Format profile                   : High@L4.1
Format settings, CABAC           : Yes
Format settings, ReFrames        : 5 frames
Muxing mode                      : Container profile=Unknown@4.1
Codec ID                         : V_MPEG4/ISO/AVC
Bit rate                         : 9 842 Kbps
Width                            : 1 920 pixels
Height                           : 816 pixels
Display aspect ratio             : 2.35:1
Frame rate                       : 25.000 fps

Audio 1
Format                           : AC-3
Format/Info                      : Audio Coding 3
Mode extension                   : CM (complete main)
Codec ID                         : A_AC3
Bit rate mode                    : Constant
Bit rate                         : 448 Kbps
Channel(s)                       : 6 channels
Channel positions                : Front: L C R, Side: L R, LFE
Sampling rate                    : 48.0 KHz
Stream size                      : 509 MiB (4%)
Title                            : English

Audio 2
Format                           : AC-3
Format/Info                      : Audio Coding 3
Mode extension                   : CM (complete main)
Codec ID                         : A_AC3
Bit rate mode                    : Constant
Bit rate                         : 192 Kbps
Channel(s)                       : 6 channels
Channel positions                : Front: L C R, Side: L R, LFE
Sampling rate                    : 48.0 KHz
Stream size                      : 218 MiB (2%)
Title                            : Polish
Language                         : Polish

Text 1
Format                           : UTF-8
Codec ID                         : S_TEXT/UTF8
Codec ID/Info                    : UTF-8 Plain Text
Title                            : English

Text 2
Format                           : UTF-8
Codec ID                         : S_TEXT/UTF8
Codec ID/Info                    : UTF-8 Plain Text
Title                            : Polish
